<svg xmlns="http://www.w3.org/2000/svg" viewBox="0 0 588.99998 111">
    <defs>
        <style>
        .a {
            fill: #59595b;
        }

        .b {
            fill: #e12726;
        }
        </style>
    </defs>
    <title>Grey_AG_logo</title>
    <path class="a" d="M135,76.3c-6.2,27.7-7.9,28.7-14.4,28.7H105.9V32.1h10.3V28.6H87.7v3.5h6.2v72.8H87.7v3.6h50.6V75.8h-3.1Z" />
    <path class="a" d="M192.7,76.3c-6,27.6-8,28.7-14.4,28.7H163.7V32.1h10.2V28.6H145.4v3.5h6.2v72.8h-6.2v3.6H196V75.8h-3.1Z" />
    <polygon class="a" points="305.2 32.1 313.4 32.1 313.4 84.4 283.9 28.7 263.4 28.7 263.4 32.1 270.2 32.1 270.2 105 263.4 105 263.4 108.6 282.7 108.6 282.7 105 274 105 274 35.5 312.8 108.3 313 108.6 317.3 108.6 317.3 32.1 324.1 32.1 324.1 28.7 305.2 28.7 305.2 32.1" />
    <path class="a" d="M25.8,62.4,38.7,20,51.3,62.4ZM45.9,1.2H39.8L8,105.00006H.2l-.2,3.6H25.9v-3.6H12.7l11.8-38.8H52.6l11.4,38.8H56.6v3.6H85v-3.6H76.2Z" />
    <path class="a" d="M215.6,73.4l9.6-31.6,9.3,31.6Zm17.5-45.6h-7.3L202,105h-6.1v3.6h19.6V105h-9.6l8.6-28.1h20.9l8,28.1H236v3.6h23.8V105h-4.2Z" />
    <path class="b" d="M377.6,66h14.5V94.4c0,6-9.5,12.3-18.6,12.3-15.5,0-25.9-8.7-25.9-51.2,0-35.4,8.3-51.2,27-51.2,15.7,0,17,6.3,19.9,20.2.8,3.7,1.6,7.8,2.9,12.5l.1.4h4V6.5l-.3-.1c-9-4-15.9-6.4-24.9-6.4C350,0,331.7,22.8,331.7,55.5c0,35.3,15.5,55.5,42.5,55.5,12.7,0,23.6-4.2,29.5-8.1l.2-.1V66.1h5.9V61.8h-32.3V66Z" />
    <polygon class="b" points="571 28.7 571 32.1 578.4 32.1 562.7 65.4 548.5 32.1 556.7 32.1 556.7 28.7 528.9 28.7 528.9 32.1 535 32.1 552.6 72.1 552.6 105 544.4 105 544.4 108.6 572.8 108.6 572.8 105 564.6 105 564.6 69.7 582.4 32.1 589 32.1 589 28.7 571 28.7" />
    <path class="b" d="M491.9,73.4,501.6,42l9.2,31.4Zm-58-7.8V31.7h11.3c3.4,0,14.4,1.2,14.4,16.3,0,11.5-6.1,17.6-17.6,17.6Zm75.6-37.7h-7.3L478.4,105h-6.8L450.2,68.4c13.9-1.3,22.1-8.9,22.1-20.4,0-12.4-8.8-19.8-23.7-19.8H415.8v3.5H422V105h-6.2v3.6h26V105H434V68.5h3l22.7,40.1h32.2V105h-9.6l8.6-28.1h20.9l8.1,28.1h-7.5v3.6h23.8V105H532Z" />
</svg>