<svg width="250" height="91" viewBox="0 0 250 91" fill="none" xmlns="http://www.w3.org/2000/svg">
<path d="M94.4496 16.7491L108.807 57.7582H118.716L133.142 16.7261V57.7582H142.729V1.19861H130.069L113.784 45.5335L97.4542 1.19861H84.8395V57.7582H94.4496V16.7491Z" fill="#055A60"/>
<path d="M198.83 57.8271L190.872 48.9738C193.715 45.2015 195.732 40.8718 196.789 36.2674L188.417 34.1573C187.754 37.0181 186.63 39.7523 185.092 42.2537L173.624 29.3638C180.505 25.4647 185.275 20.7858 185.275 13.9968C185.275 6.29036 179.358 0.372925 169.771 0.372925C160.184 0.372925 154.06 6.29036 154.06 14.1344C154.361 19.084 156.467 23.7513 159.977 27.2537C154.495 30.6252 149.702 35.35 149.702 42.8041C149.702 53.1482 158.28 58.8592 169.45 58.8592C174.972 58.9898 180.407 57.4554 185.046 54.4555L188.326 57.9647H199.014L198.83 57.8271ZM169.61 8.35458C172.635 7.94623 175.422 10.057 175.849 13.0793V13.3087C175.894 13.5589 175.894 13.8154 175.849 14.0656C175.849 17.7124 173.555 20.1665 167.844 22.9188C165.274 20.8592 163.625 17.8657 163.257 14.5931C163.095 11.4318 165.45 8.70304 168.601 8.40045C168.935 8.35081 169.273 8.33544 169.61 8.35458ZM169.954 50.6023C164.06 50.6023 159.106 48.1482 159.106 42.5748C159.106 38.7215 161.399 36.1986 165.734 33.5151L179.151 47.8959C176.432 49.7078 173.244 50.6881 169.977 50.717L169.954 50.6023Z" fill="#055A60"/>
<path d="M227.202 27.1619V35.0748H241.606V36.2904C241.606 45.4647 235.459 50.0518 227.294 50.0518C216.95 50.0518 209.977 42.2307 209.977 29.4096C209.977 16.5885 217.225 8.76743 227.339 8.76743C233.076 8.45242 238.515 11.3397 241.468 16.2674L248.968 11.1757C244.1 4.02289 235.944 -0.180642 227.294 0.00596268C210.986 0.00596268 200.229 11.4739 200.229 29.5702C200.229 47.6665 210.711 59.1344 226.445 59.1344C232.4 59.5532 238.144 56.8421 241.606 51.9784V57.8959H249.885V27.1619H227.202Z" fill="#055A60"/>
<path d="M87.3853 69.2261H84.8395V89.3867H87.3853V69.2261Z" fill="#055A60"/>
<path d="M99.2431 74.3867C97.3462 74.252 95.5178 75.1227 94.4266 76.6802V74.6848H92.1331V89.272H94.4266V80.5564C94.4326 79.4473 94.8821 78.3868 95.6749 77.6112C96.4677 76.8356 97.5379 76.4096 98.6468 76.4279C100.232 76.4385 101.532 77.6881 101.606 79.272C101.628 79.4548 101.628 79.6396 101.606 79.8224V89.3179H103.899V79.272C104.125 76.752 102.267 74.5252 99.7477 74.2949L99.2431 74.3867Z" fill="#055A60"/>
<path d="M113.211 86.5197L108.991 74.7766H106.307L111.973 89.3638H114.495L120.138 74.7766H117.5L113.211 86.5197Z" fill="#055A60"/>
<path d="M128.05 74.3867C124.25 74.3867 121.17 77.4673 121.17 81.2674C121.147 81.5652 121.147 81.8642 121.17 82.1619C120.754 85.9361 123.474 89.3335 127.248 89.7537H128.326C130.674 89.8427 132.905 88.727 134.243 86.795L132.317 85.5106C131.578 86.5255 130.465 87.2032 129.224 87.3928C127.984 87.5823 126.719 87.268 125.711 86.5197C124.51 85.6876 123.778 84.3333 123.739 82.873H134.885V82.2537C135.148 80.447 134.681 78.6101 133.588 77.1475C132.496 75.6849 130.867 74.7165 129.06 74.4555C128.726 74.405 128.388 74.382 128.05 74.3867ZM123.739 80.8317C123.738 78.473 125.624 76.5467 127.982 76.4968C130.311 76.5803 132.177 78.4559 132.248 80.7858L123.739 80.8317Z" fill="#055A60"/>
<path d="M143.578 80.9234C141.56 80.5794 140 80.1206 140 78.6298C140 77.139 141.353 76.6573 142.959 76.6573C144.475 76.5487 145.931 77.268 146.766 78.5381L148.555 77.2078C147.289 75.3923 145.168 74.367 142.959 74.5014C139.748 74.5014 137.431 75.9922 137.431 78.7445C137.431 81.4968 140.023 82.7583 142.661 83.217C144.725 83.561 146.445 83.8821 146.445 85.5106C146.445 87.139 145.138 87.8041 143.165 87.8041C141.33 87.9469 139.565 87.0647 138.578 85.5106L136.674 86.8179C138.093 89.0279 140.617 90.2724 143.234 90.0518C146.812 90.0518 148.991 88.2399 148.991 85.4647C148.968 81.9555 146.262 81.3362 143.578 80.9234Z" fill="#055A60"/>
<path d="M157.064 87.5977C155.78 87.5977 155.275 87.139 155.275 85.5335V76.6802H159.037V74.6848H155.367V70.7628H153.073V74.6848H150.94V76.772H153.073V85.9463C153.073 88.6757 154.518 89.616 156.904 89.616C157.732 89.5789 158.55 89.4244 159.335 89.1573L158.807 87.1619C158.261 87.4206 157.668 87.5687 157.064 87.5977Z" fill="#055A60"/>
<path d="M177.775 74.3867C175.881 74.3457 174.118 75.3506 173.188 77.0013C172.455 75.3106 170.738 74.2637 168.899 74.3867C167.205 74.3296 165.617 75.2116 164.771 76.6802V74.8683H162.477V89.5931H164.771V80.7169C164.705 78.5933 166.342 76.8035 168.463 76.6802C170.229 76.6802 171.17 77.827 171.17 79.9601V89.5013H173.601V80.6252C173.599 78.5161 175.256 76.7783 177.362 76.6802C179.128 76.6802 180.046 77.827 180.046 79.9601V89.3867H182.477V79.272C182.703 76.836 180.921 74.6743 178.486 74.4325H177.729L177.775 74.3867Z" fill="#055A60"/>
<path d="M192.546 74.3867C188.746 74.3867 185.665 77.4673 185.665 81.2674C185.642 81.5192 185.642 81.7725 185.665 82.0243C185.25 85.7984 187.97 89.1959 191.743 89.616H192.89C195.238 89.705 197.47 88.5893 198.807 86.6573L196.858 85.3729C195.817 87.3875 193.492 88.3786 191.318 87.7342C189.143 87.0898 187.734 84.9917 187.959 82.7353H199.427V82.2536C199.689 80.4469 199.222 78.61 198.13 77.1475C197.037 75.6849 195.408 74.7165 193.601 74.4555L192.546 74.3867ZM188.303 80.8316C188.05 78.5443 189.657 76.4688 191.935 76.1408C194.213 75.8128 196.34 77.3504 196.743 79.616C196.767 79.8064 196.767 79.999 196.743 80.1894C196.789 80.3623 196.789 80.5441 196.743 80.7169L188.303 80.8316Z" fill="#055A60"/>
<path d="M209.954 74.3867C208.141 74.3487 206.425 75.2066 205.367 76.6802V74.6848H202.913V89.2949H205.206V80.6252C205.232 78.3288 207.107 76.484 209.404 76.4968C211.008 76.4317 212.368 77.6682 212.454 79.272V89.3179H214.748V79.272C214.856 78.0581 214.476 76.8511 213.693 75.9173C212.91 74.9835 211.788 74.3998 210.573 74.2949L209.954 74.3867Z" fill="#055A60"/>
<path d="M223.716 87.5977C222.454 87.5977 221.95 87.139 221.95 85.5335V76.6802H225.528V74.6848H221.95V70.7628H219.518V74.6848H217.385V76.772H219.518V85.9463C219.518 88.6757 221.009 89.616 223.349 89.616C224.193 89.59 225.028 89.4353 225.826 89.1573L225.413 87.2078C224.871 87.4266 224.298 87.5582 223.716 87.5977Z" fill="#055A60"/>
<path d="M234.541 80.9234C232.523 80.5793 230.872 80.1206 230.872 78.6298C230.872 77.139 232.248 76.6573 234.014 76.6573C235.491 76.5859 236.896 77.3013 237.706 78.538L239.473 77.2078C238.217 75.348 236.07 74.2921 233.83 74.4325C230.642 74.4325 228.303 75.9234 228.303 78.6757C228.303 81.428 230.895 82.6894 233.532 83.1481C235.596 83.4922 237.317 83.8133 237.317 85.4417C237.317 87.0702 236.032 87.7353 234.06 87.7353C232.278 87.8279 230.585 86.9508 229.633 85.4417L227.729 86.7491C229.084 88.9741 231.578 90.2437 234.174 90.0289C237.752 90.0289 240.092 88.2628 240.092 85.4417C239.885 81.9555 237.087 81.3362 234.541 80.9234Z" fill="#055A60"/>
<path d="M46.9725 10.8087V48.1711H9.63303V10.8087H46.9725ZM56.5826 1.29034H0V57.7582H56.5826V1.29034Z" fill="#7EBD5F"/>
</svg>
